<svg aria-hidden="true" style="position: absolute; width: 0; height: 0; overflow: hidden;" version="1.1"
    xmlns="http://www.w3.org/2000/svg" xmlns:xlink="http://www.w3.org/1999/xlink">
    <defs>
        <symbol xmlns="http://www.w3.org/2000/svg" width="12" height="25" viewBox="0 0 12 25" fill="none"
            id="arrow-back">
            <g clip-path="url(#clip0_7_119)">
                <path
                    d="M1.49995 12.5C1.49995 12.3082 1.57326 12.1162 1.7197 11.9698L9.2197 4.4698C9.51277 4.17673 9.98733 4.17673 10.2802 4.4698C10.5731 4.76286 10.5733 5.23742 10.2802 5.5303L3.31045 12.5L10.2802 19.4698C10.5733 19.7629 10.5733 20.2374 10.2802 20.5303C9.98714 20.8232 9.51258 20.8234 9.2197 20.5303L1.7197 13.0303C1.57326 12.8839 1.49995 12.6919 1.49995 12.5Z"
                    fill="white" />
            </g>
            <defs>
                <clipPath id="clip0_7_119">
                    <rect width="24" height="12" fill="white" transform="translate(12 0.5) rotate(90)" />
                </clipPath>
            </defs>
        </symbol>
        <symbol xmlns="http://www.w3.org/2000/svg" width="17" height="17" viewBox="0 0 17 17" fill="none" id="check">
            <path
                d="M16 8.5C16 9.14 15.2137 9.6675 15.0562 10.2575C14.8937 10.8675 15.305 11.7175 14.9963 12.2513C14.6825 12.7938 13.7387 12.8588 13.2987 13.2987C12.8588 13.7387 12.7938 14.6825 12.2513 14.9963C11.7175 15.305 10.8675 14.8937 10.2575 15.0562C9.6675 15.2137 9.14 16 8.5 16C7.86 16 7.3325 15.2137 6.7425 15.0562C6.1325 14.8937 5.2825 15.305 4.74875 14.9963C4.20625 14.6825 4.14125 13.7387 3.70125 13.2987C3.26125 12.8588 2.3175 12.7938 2.00375 12.2513C1.695 11.7175 2.10625 10.8675 1.94375 10.2575C1.78625 9.6675 1 9.14 1 8.5C1 7.86 1.78625 7.3325 1.94375 6.7425C2.10625 6.1325 1.695 5.2825 2.00375 4.74875C2.3175 4.20625 3.26125 4.14125 3.70125 3.70125C4.14125 3.26125 4.20625 2.3175 4.74875 2.00375C5.2825 1.695 6.1325 2.10625 6.7425 1.94375C7.3325 1.78625 7.86 1 8.5 1C9.14 1 9.6675 1.78625 10.2575 1.94375C10.8675 2.10625 11.7175 1.695 12.2513 2.00375C12.7938 2.3175 12.8588 3.26125 13.2987 3.70125C13.7387 4.14125 14.6825 4.20625 14.9963 4.74875C15.305 5.2825 14.8937 6.1325 15.0562 6.7425C15.2137 7.3325 16 7.86 16 8.5Z"
                fill="#0038FF" />
            <path
                d="M10.6675 6.265L7.8125 9.12L6.3325 7.64125C6.01125 7.32 5.49 7.32 5.16875 7.64125C4.8475 7.9625 4.8475 8.48375 5.16875 8.805L7.245 10.8813C7.5575 11.1938 8.065 11.1938 8.3775 10.8813L11.83 7.42875C12.1512 7.1075 12.1512 6.58625 11.83 6.265C11.5087 5.94375 10.9887 5.94375 10.6675 6.265Z"
                fill="#FFFCEE" />
        </symbol>
        <symbol xmlns="http://www.w3.org/2000/svg" width="22" height="19" viewBox="0 0 22 19" fill="none"
            id="t-space-logo">
            <g clip-path="url(#clip0_7_197)">
                <path fill-rule="evenodd" clip-rule="evenodd"
                    d="M2.29916 0.839622H15.0269V3.65548H5.11502V8.5551H2.29916V0.839622Z" fill="white" />
                <path fill-rule="evenodd" clip-rule="evenodd"
                    d="M14.9143 18.1856H7.14252V5.73946H16.8854V0.83987H19.7013V8.55534H9.9584V15.3697H12.0985V10.4138H14.9143V18.1856Z"
                    fill="white" />
            </g>
            <defs>
                <clipPath id="clip0_7_197">
                    <rect width="21.7358" height="18" fill="white" transform="translate(0.13208 0.5)" />
                </clipPath>
            </defs>
        </symbol>
        <symbol xmlns="http://www.w3.org/2000/svg" width="30" height="30" viewBox="0 0 30 30" fill="none" id="clip">
            <path
                d="M24.7406 5.25967C22.0374 2.55645 17.626 2.54367 14.9227 5.24696L3.92429 16.2454C1.95038 18.2193 1.95674 21.4374 3.93064 23.4114C5.90455 25.3853 9.12272 25.3916 11.0966 23.4177L20.7035 13.8109C21.948 12.5664 21.948 10.5414 20.7035 9.29683C19.4589 8.05231 17.4339 8.05231 16.1894 9.29683L7.87253 17.6137C7.45704 18.0292 7.45704 18.7029 7.87253 19.1184C8.28802 19.5338 8.9617 19.5338 9.37719 19.1184L17.6941 10.8015C18.1089 10.3866 18.7839 10.3866 19.1987 10.8015C19.6136 11.2163 19.6136 11.8913 19.1987 12.3061L9.5919 21.913C8.44767 23.0572 6.5795 23.0508 5.43531 21.9066C4.29112 20.7624 4.28472 18.8943 5.42895 17.75L16.4274 6.75162C18.3009 4.87805 21.3623 4.89076 23.2359 6.76437C25.1095 8.63798 25.1223 11.6993 23.2487 13.5729L12.9546 23.867C12.5391 24.2825 12.5391 24.9562 12.9546 25.3717C13.3701 25.7872 14.0437 25.7872 14.4592 25.3717L24.7533 15.0776C27.4566 12.3743 27.4439 7.96293 24.7406 5.25967Z"
                fill="#A4A4AB" />
        </symbol>
        <symbol xmlns="http://www.w3.org/2000/svg" width="20" height="20" viewBox="0 0 20 20" fill="none" id="sticker">
            <g clip-path="url(#clip0_7_621)">
                <path
                    d="M10.3186 0H10C4.48602 0 0 4.48602 0 10C0 15.514 4.48602 20 10 20C15.514 20 20 15.514 20 10V9.68137L10.3186 0ZM17.4208 9.27785C15.2212 9.20902 13.559 8.62504 12.467 7.53305C11.375 6.44105 10.7911 4.77875 10.7222 2.57934L17.4208 9.27785ZM10 18.4615C5.3343 18.4615 1.53848 14.6657 1.53848 10C1.53848 5.60887 4.90094 1.98887 9.18613 1.57797C9.08742 4.69785 9.82312 7.06484 11.3791 8.6209C12.8432 10.085 15.0242 10.8234 17.8759 10.8233C18.055 10.8233 18.2376 10.8196 18.4221 10.8137C18.0112 15.099 14.3912 18.4615 10 18.4615Z"
                    fill="#A4A4AB" />
            </g>
            <defs>
                <clipPath id="clip0_7_621">
                    <rect width="20" height="20" fill="white" />
                </clipPath>
            </defs>
        </symbol>
        <symbol xmlns="http://www.w3.org/2000/svg" width="30" height="30" viewBox="0 0 30 30" fill="none" id="micro">
            <path
                d="M15 20.625C11.8983 20.625 9.375 18.1017 9.375 15V7.5C9.375 4.39828 11.8983 1.875 15 1.875C18.1017 1.875 20.625 4.39828 20.625 7.5V15C20.625 18.1017 18.1017 20.625 15 20.625ZM15 3.75C12.9323 3.75 11.25 5.43234 11.25 7.5V15C11.25 17.0677 12.9323 18.75 15 18.75C17.0677 18.75 18.75 17.0677 18.75 15V7.5C18.75 5.43234 17.0677 3.75 15 3.75ZM23.4375 13.125C22.9198 13.125 22.5 13.5448 22.5 14.0625V15C22.5 19.1355 19.1355 22.5 15 22.5C10.8645 22.5 7.5 19.1355 7.5 15V14.0625C7.5 13.5448 7.08023 13.125 6.5625 13.125C6.04477 13.125 5.625 13.5448 5.625 14.0625V15C5.625 19.8532 9.33164 23.8556 14.0625 24.3274V26.25H12.1875C11.6698 26.25 11.25 26.6698 11.25 27.1875C11.25 27.7052 11.6698 28.125 12.1875 28.125H17.8125C18.3302 28.125 18.75 27.7052 18.75 27.1875C18.75 26.6698 18.3302 26.25 17.8125 26.25H15.9375V24.3274C20.6684 23.8554 24.375 19.853 24.375 15V14.0625C24.375 13.5448 23.9552 13.125 23.4375 13.125Z"
                fill="#A4A4AB" />
        </symbol>
    </defs>
</svg>